# AST/ASF file generated using VICON BodyLanguage
# -----------------------------------------------
:version 1.10
:name VICON
:units
  mass 1.0
  length 0.45
  angle deg
:documentation
   .ast/.asf automatically generated from VICON data using
   VICON BodyBuilder and BodyLanguage model FoxedUp or BRILLIANT.MOD
:root
   order TX TY TZ RX RY RZ
   axis XYZ
   position 0 0 0  
   orientation 0 0 0 
:bonedata
  begin
     id 1 
     name lhipjoint
     direction 0.57768 -0.667037 0.470475 
     length 2.36008 
     axis 0 0 0  XYZ
  end
  begin
     id 2 
     name lfemur
     direction 0.34202 -0.939693 0  
     length 6.97235  
     axis 0 0 20  XYZ
    dof rx ry rz
    limits (-160.0 20.0)
           (-70.0 70.0)
           (-60.0 70.0)
  end
  begin
     id 3 
     name ltibia
     direction 0.34202 -0.939693 0   
     length 6.93428   
     axis 0 0 20   XYZ
    dof rx
    limits (-10.0 170.0)
  end
  begin
     id 4 
     name lfoot
     direction 0.133018 -0.365463 0.921272   
     length 2.18603   
     axis -90 7.62852e-016 20   XYZ
    dof rx rz
    limits (-45.0 90.0)
           (-70.0 20.0)
  end
  begin
     id 5 
     name ltoes
     direction 1.53519e-011 -4.22055e-011 1   
     length 1.07924   
     axis -90 7.62852e-016 20   XYZ
    dof rx
    limits (-90.0 20.0)
  end
  begin
     id 6 
     name rhipjoint
     direction -0.577712 -0.667019 0.470462   
     length 2.36015  
     axis 0 0 0  XYZ 
  end
  begin
     id 7 
     name rfemur
     direction -0.34202 -0.939693 0   
     length 6.71195   
     axis 0 0 -20   XYZ
    dof rx ry rz
    limits (-160.0 20.0)
           (-70.0 70.0)
           (-70.0 60.0)
  end
  begin
     id 8 
     name rtibia
     direction -0.34202 -0.939693 0   
     length 7.04592   
     axis 0 0 -20   XYZ
    dof rx
    limits (-10.0 170.0)
 end
 begin
     id 9 
     name rfoot
     direction -0.113796 -0.312651 0.943027   
     length 2.03846  
     axis -90 -7.62852e-016 -20   XYZ
    dof rx rz
    limits (-45.0 90.0)
           (-20.0 70.0)
  end
  begin
     id 10 
     name rtoes
     direction -1.53586e-011 -4.218e-011 1   
     length 1.01562   
     axis -90 -7.62852e-016 -20   XYZ
    dof rx
    limits (-90.0 20.0)
  end
  begin
     id 11 
     name lowerback
     direction -0.0417299 0.991937 -0.119667   
     length 2.05257   
     axis 0 0 0   XYZ
    dof rx ry rz
    limits (-20.0 45.0)
           (-30.0 30.0)
           (-30.0 30.0)
  end
  begin
     id 12 
     name upperback
     direction -0.00017666 0.999999 0.00105178   
     length 2.05693   
     axis 0 0 0   XYZ
    dof rx ry rz
    limits (-20.0 45.0)
           (-30.0 30.0)
           (-30.0 30.0)
  end
  begin
     id 13 
     name thorax
     direction 0.0185169 0.998203 0.0569866   
     length 2.0932   
     axis 0 0 0   XYZ
    dof rx ry rz
    limits (-20.0 45.0)
           (-30.0 30.0)
           (-30.0 30.0)
  end
  begin
     id 14 
     name lowerneck
     direction -0.0212406 0.982645 0.184277   
     length 1.72509   
     axis 0 0 0   XYZ
    dof rx ry rz
    limits (-20.0 45.0)
           (-30.0 30.0)
           (-30.0 30.0)
  end
  begin
     id 15 
     name upperneck
     direction 0.00528579 0.965323 -0.261004   
     length 1.76294   
     axis 0 0 0   XYZ
    dof rx ry rz
    limits (-20.0 45.0)
           (-30.0 30.0)
           (-30.0 30.0)
  end
  begin
     id 16
     name head
     direction 0.00695421 0.994078 -0.108445  
     length 1.78678  
     axis 0 0 0   XYZ
    dof rx ry rz
    limits (-20.0 45.0)
           (-30.0 30.0)
           (-30.0 30.0)
  end
  begin
     id 17 
     name lclavicle
     direction 0.97277 0.211305 -0.095232  
     length 3.84823  
     axis 0 0 0   XYZ
    dof ry rz
    limits (-20.0 10.0)
           (0.0 20.0)
  end
  begin
     id 18 
     name lhumerus
     direction 1 -4.48957e-011 -1.98313e-027   
     length 4.97185   
     axis 180 -30 -90   XYZ
    dof rx ry rz
    limits (-60.0 90.0)
           (-90.0 90.0)
           (-90.0 90.0)
  end
  begin
     id 19
     name lradius
     direction 1 -4.4898e-011 7.31063e-027   
     length 3.35811   
     axis 180 -30 -90   XYZ
    dof rx
    limits (-10.0 170.0)
  end
  begin
     id 20
     name lwrist
     direction 1 -4.48938e-011 9.95048e-027   
     length 1.67905   
     axis -8.75986e-015 90 90   XYZ
    dof ry
    limits (-180.0 0.0)
 end
  begin
     id 21 
     name lhand
     direction 1 -4.4901e-011 1.9901e-026   
     length 0.622776   
     axis -1.26985e-014 90 90   XYZ
    dof rx rz
    limits (-90.0 90.0)
           (-45.0 45.0)
  end
  begin
     id 22 
     name lfingers
     direction 1 -4.48961e-011 3.98019e-026   
     length 0.502098   
     axis -2.5397e-014 90 90   XYZ
    dof rx
    limits (0.0 90.0)
  end
  begin
     id 23
     name lthumb
     direction 0.707107 -6.34933e-011 0.707107   
     length 0.720915   
     axis -90 45 2.85299e-015   XYZ
    dof rx rz
    limits (-45.0 45.0)
           (-45.0 45.0)
  end
  begin
     id 24 
     name rclavicle
     direction -0.990867 0.133739 -0.0172226   
     length 3.78845  
     axis 0 0 0   XYZ 
    dof ry rz
    limits (-10.0 20.0)
           (-20.0 0.0)
  end
  begin
     id 25 
     name rhumerus
     direction -1 -4.48972e-011 -1.99267e-027  
     length 4.96493   
     axis 180 30 90   XYZ
    dof rx ry rz
    limits (-90.0 60.0)
           (-90.0 90.0)
           (-90.0 90.0)
  end
  begin
     id 26 
     name rradius
     direction -1 -4.48969e-011 8.96093e-027   
     length 3.34929   
     axis 180 30 90   XYZ
    dof rx
    limits (-10.0 170.0)
  end
  begin
     id 27 
     name rwrist
     direction -1 -4.48953e-011 9.95048e-027   
     length 1.67464   
     axis -8.75986e-015 -90 -90   XYZ
    dof ry
    limits (-180.0 0.0)
  end
  begin
     id 28
     name rhand
     direction -1 -4.49001e-011 1.9901e-026   
     length 0.638041   
     axis -1.26985e-014 -90 -90   XYZ
    dof rx rz
    limits (-90.0 90.0)
           (-45.0 45.0)
  end
  begin
     id 29
     name rfingers
     direction -1 -4.48967e-011 3.98019e-026   
     length 0.514405   
     axis -2.5397e-014 -90 -90   XYZ
    dof rx
    limits (0.0 90.0)
  end
  begin
     id 30
     name rthumb
     direction -0.707107 -6.34904e-011 0.707107   
     length 0.738586   
     axis -90 -45 -2.85299e-015   XYZ
    dof rx rz
    limits (-45.0 45.0)
           (-45.0 45.0)
  end
:hierarchy
  begin
    root lhipjoint rhipjoint lowerback
    lhipjoint lfemur
    lfemur ltibia
    ltibia lfoot
    lfoot ltoes
    rhipjoint rfemur
    rfemur rtibia
    rtibia rfoot
    rfoot rtoes
    lowerback upperback
    upperback thorax
    thorax lowerneck lclavicle rclavicle
    lowerneck upperneck
    upperneck head
    lclavicle lhumerus
    lhumerus lradius
    lradius lwrist
    lwrist lhand lthumb
    lhand lfingers
    rclavicle rhumerus
    rhumerus rradius
    rradius rwrist
    rwrist rhand rthumb
    rhand rfingers
  end

#!OML:ASF E:\Mandelcareful walks\Project 1\Capture day 1\Session 1\Subject1.ASF
:FULLY-SPECIFIED
:DEGREES
35
root -2.56476 16.8546 -0.640434 139.265 85.6112 134.547
lowerback -5.78539 -0.630987 -6.78639
upperback 0.754178 -0.359526 0.293156
thorax 4.08458 -0.334535 4.08688
lowerneck -24.779 1.76841 -1.86564
upperneck 26.886 3.90027 -1.04414
head 13.1497 1.45097 0.639519
rclavicle -9.67212e-015 -5.46658e-015
rhumerus -28.1225 -11.7127 -80.6955
rradius 25.3208
rwrist -2.67954
rhand -12.5813 -31.2733
rfingers 7.12502
rthumb 13.4968 -60.816
lclavicle -9.67212e-015 -5.46658e-015
lhumerus -25.6875 10.7204 88.0197
lradius 20.7259
lwrist -1.56209
lhand -21.4527 -9.5818
lfingers 7.12502
lthumb 4.93728 20.3407
rfemur -4.27177 2.39353 10.6351
rtibia 15.6294
rfoot -18.9797 -26.6984
rtoes 4.55168
lfemur -6.38958 -8.0549 -18.5592
ltibia 21.4117
lfoot -24.3081 22.426
ltoes 6.97661
36
root -2.56504 16.8534 -0.641525 139.315 85.6775 134.575
lowerback -5.79811 -0.62124 -6.70478
upperback 0.726151 -0.352435 0.292241
thorax 4.06067 -0.327628 4.0406
lowerneck -24.6669 1.80609 -1.86183
upperneck 26.8357 3.93792 -1.01317
head 13.1052 1.47473 0.655795
rclavicle 2.4289e-015 -5.1684e-015
rhumerus -28.0977 -11.6517 -80.7292
rradius 25.3194
rwrist -2.78368
rhand -12.3612 -31.5878
rfingers 7.12502
rthumb 13.7089 -61.1162
lclavicle 2.4289e-015 -5.1684e-015
lhumerus -25.7224 10.7231 88.0228
lradius 20.775
lwrist -1.45646
lhand -21.5047 -10.1649
lfingers 7.12502
lthumb 4.88708 19.7587
rfemur -4.29699 2.36213 10.6753
rtibia 15.5717
rfoot -18.8034 -26.6439
rtoes 4.47253
lfemur -6.42798 -8.09455 -18.5111
ltibia 21.4484
lfoot -24.4139 22.4334
ltoes 7.07111
37
root -2.56598 16.8541 -0.641962 139.715 85.7501 134.968
lowerback -5.77913 -0.609331 -6.60206
upperback 0.697966 -0.346985 0.302755
thorax 4.01877 -0.320709 3.99428
lowerneck -24.5812 1.84446 -1.82171
upperneck 26.7887 3.97764 -1.02862
head 13.0696 1.49606 0.648663
rclavicle 6.46671e-015 -3.37934e-015
rhumerus -28.0663 -11.5601 -80.7558
rradius 25.3295
rwrist -2.95231
rhand -12.1239 -32.0089
rfingers 7.12502
rthumb 13.9376 -61.5217
lclavicle 6.46671e-015 -3.37934e-015
lhumerus -25.772 10.6697 88.0375
lradius 20.8203
lwrist -1.38891
lhand -21.402 -9.41444
lfingers 7.12502
lthumb 4.98621 20.5069
rfemur -4.30098 2.38271 10.7513
rtibia 15.541
rfoot -18.7688 -26.6393
rtoes 4.54319
lfemur -6.45308 -8.1998 -18.439
ltibia 21.4652
lfoot -24.4364 22.5592
ltoes 7.18289
38
root -2.56454 16.8562 -0.641086 139.384 85.7122 134.636
lowerback -5.73582 -0.595859 -6.62583
upperback 0.658164 -0.329716 0.258431
thorax 3.95054 -0.308649 3.96308
lowerneck -24.5518 1.8482 -1.74758
upperneck 26.823 3.96175 -1.04724
head 13.0799 1.49452 0.626347
rclavicle 5.56597e-015 5.86415e-015
rhumerus -28.136 -11.5201 -80.795
rradius 25.3948
rwrist -3.12009
rhand -12.0183 -32.3003
rfingers 7.12502
rthumb 14.0394 -61.8062
lclavicle 5.56597e-015 5.86415e-015
lhumerus -25.8647 10.4977 88.03
lradius 20.8573
lwrist -1.33564
lhand -21.311 -8.78103
lfingers 7.12502
lthumb 5.07409 21.1382
rfemur -4.27377 2.43353 10.7087
rtibia 15.5167
rfoot -18.7813 -26.702
rtoes 4.40312
lfemur -6.45673 -8.21465 -18.4941
ltibia 21.4774
lfoot -24.3589 22.7242
ltoes 6.85137
39
root -2.56212 16.8567 -0.640801 138.763 85.647 134.012
lowerback -5.73123 -0.582963 -6.69112
upperback 0.659099 -0.305785 0.210245
thorax 3.94642 -0.297284 3.95169
lowerneck -24.6106 1.82888 -1.72109
upperneck 26.8889 3.92942 -1.04895
head 13.1196 1.48137 0.616993
rclavicle -1.31322e-014 -1.12313e-014
rhumerus -28.1016 -11.5925 -80.8136
rradius 25.3462
rwrist -3.13584
rhand -11.9915 -32.4856
rfingers 7.12502
rthumb 14.0652 -61.9897
lclavicle -1.31322e-014 -1.12313e-014
lhumerus -25.871 10.4401 88.0116
lradius 20.8278
lwrist -1.38135
lhand -21.2759 -8.9852
lfingers 7.12502
lthumb 5.10794 20.9332
rfemur -4.2616 2.40245 10.6181
rtibia 15.5055
rfoot -18.7716 -26.7067
rtoes 4.20418
lfemur -6.45123 -8.16335 -18.5854
ltibia 21.4824
lfoot -24.3521 22.8076
ltoes 6.62459
40
root -2.56175 16.8555 -0.63967 139.336 85.655 134.58
lowerback -5.73274 -0.600967 -6.66605
upperback 0.658425 -0.332687 0.234842
thorax 3.94967 -0.310582 3.96081
lowerneck -24.6177 1.82918 -1.77346
upperneck 26.9171 3.94662 -1.02769
head 13.1309 1.4862 0.637604
rclavicle 7.38609e-015 -2.38542e-015
rhumerus -28.0621 -11.6057 -80.8092
rradius 25.2727
rwrist -3.05074
rhand -11.8695 -32.1889
rfingers 7.12502
rthumb 14.1827 -61.6847
lclavicle 7.38609e-015 -2.38542e-015
lhumerus -25.817 10.6311 87.9864
lradius 20.699
lwrist -1.58701
lhand -21.2457 -9.19577
lfingers 7.12502
lthumb 5.13708 20.722
rfemur -4.26968 2.43956 10.6713
rtibia 15.5181
rfoot -18.8338 -26.7582
rtoes 4.22153
lfemur -6.46461 -8.21342 -18.5299
ltibia 21.4778
lfoot -24.4558 22.706
ltoes 7.03491
